<?xml version="1.0" encoding="UTF-8" standalone="no"?>
<!-- Created with Inkscape (http://www.inkscape.org/) -->

<svg
   xmlns:dc="http://purl.org/dc/elements/1.1/"
   xmlns:cc="http://creativecommons.org/ns#"
   xmlns:rdf="http://www.w3.org/1999/02/22-rdf-syntax-ns#"
   xmlns:svg="http://www.w3.org/2000/svg"
   xmlns="http://www.w3.org/2000/svg"
   xmlns:sodipodi="http://sodipodi.sourceforge.net/DTD/sodipodi-0.dtd"
   xmlns:inkscape="http://www.inkscape.org/namespaces/inkscape"
   width="146.01907mm"
   height="56.865856mm"
   viewBox="0 0 146.01907 56.865856"
   version="1.1"
   id="svg8"
   inkscape:version="0.92.3 (2405546, 2018-03-11)"
   sodipodi:docname="drawsvg.svg">
  <defs
     id="defs2" />
  <sodipodi:namedview
     id="base"
     pagecolor="#ffffff"
     bordercolor="#666666"
     borderopacity="1.0"
     inkscape:pageopacity="0.0"
     inkscape:pageshadow="2"
     inkscape:zoom="0.98994949"
     inkscape:cx="310.69764"
     inkscape:cy="45.975224"
     inkscape:document-units="mm"
     inkscape:current-layer="layer1"
     showgrid="false"
     inkscape:window-width="1366"
     inkscape:window-height="704"
     inkscape:window-x="0"
     inkscape:window-y="27"
     inkscape:window-maximized="1"
     units="mm"
     fit-margin-top="0"
     fit-margin-left="0"
     fit-margin-right="0"
     fit-margin-bottom="0" />
  <metadata
     id="metadata5">
    <rdf:RDF>
      <cc:Work
         rdf:about="">
        <dc:format>image/svg+xml</dc:format>
        <dc:type
           rdf:resource="http://purl.org/dc/dcmitype/StillImage" />
        <dc:title />
      </cc:Work>
    </rdf:RDF>
  </metadata>
  <g
     inkscape:label="Capa 1"
     inkscape:groupmode="layer"
     id="layer1"
     transform="translate(-30.555941,-46.317071)">
    <g
       id="g3840"
       transform="matrix(0.26458333,0,0,0.26458333,-25.342427,-9.3166633)">
      <g
         id="g3796"
         transform="matrix(4.41419,0,0,4.41419,178.163,181.577)"
         style="vector-effect:non-scaling-stroke;fill:none;stroke:#000000;stroke-width:1px"
         topico="/PM/tnt/p1">
        <path
           id="path3790"
           d="M 38,7 H 10 C 8.9,7 8,7.9 8,9 v 6 c 0,1.1 0.9,2 2,2 h 28 c 1.1,0 2,-0.9 2,-2 V 9 C 40,7.9 39.1,7 38,7 Z"
           inkscape:connector-curvature="0" />
        <path
           id="path3792"
           d="M 38,19 H 10 c -1.1,0 -2,0.9 -2,2 v 6 c 0,1.1 0.9,2 2,2 h 28 c 1.1,0 2,-0.9 2,-2 v -6 c 0,-1.1 -0.9,-2 -2,-2 z"
           inkscape:connector-curvature="0" />
        <path
           id="path3794"
           d="M 38,31 H 10 c -1.1,0 -2,0.9 -2,2 v 6 c 0,1.1 0.9,2 2,2 h 28 c 1.1,0 2,-0.9 2,-2 v -6 c 0,-1.1 -0.9,-2 -2,-2 z"
           inkscape:connector-curvature="0" />
      </g>
      <g
         id="g3804"
         transform="matrix(4.41176,4.00257e-4,-4.00257e-4,4.41176,385.715,185.108)"
         style="vector-effect:non-scaling-stroke;fill:none;stroke:#000000;stroke-width:1px"
         topico="/PM/tnt/p2">
        <path
           id="path3798"
           d="M 38,7 H 10 C 8.9,7 8,7.9 8,9 v 6 c 0,1.1 0.9,2 2,2 h 28 c 1.1,0 2,-0.9 2,-2 V 9 C 40,7.9 39.1,7 38,7 Z"
           inkscape:connector-curvature="0" />
        <path
           id="path3800"
           d="M 38,19 H 10 c -1.1,0 -2,0.9 -2,2 v 6 c 0,1.1 0.9,2 2,2 h 28 c 1.1,0 2,-0.9 2,-2 v -6 c 0,-1.1 -0.9,-2 -2,-2 z"
           inkscape:connector-curvature="0" />
        <path
           id="path3802"
           d="M 38,31 H 10 c -1.1,0 -2,0.9 -2,2 v 6 c 0,1.1 0.9,2 2,2 h 28 c 1.1,0 2,-0.9 2,-2 v -6 c 0,-1.1 -0.9,-2 -2,-2 z"
           inkscape:connector-curvature="0" />
      </g>
      <g
         id="g3812"
         transform="matrix(4.43226,0,0,4.43226,583.646,186.886)"
         style="vector-effect:non-scaling-stroke;fill:none;stroke:#000000;stroke-width:1px"
         topico="/PM/tnt/p3">
        <path
           id="path3806"
           d="M 38,7 H 10 C 8.9,7 8,7.9 8,9 v 6 c 0,1.1 0.9,2 2,2 h 28 c 1.1,0 2,-0.9 2,-2 V 9 C 40,7.9 39.1,7 38,7 Z"
           inkscape:connector-curvature="0" />
        <path
           id="path3808"
           d="M 38,19 H 10 c -1.1,0 -2,0.9 -2,2 v 6 c 0,1.1 0.9,2 2,2 h 28 c 1.1,0 2,-0.9 2,-2 v -6 c 0,-1.1 -0.9,-2 -2,-2 z"
           inkscape:connector-curvature="0" />
        <path
           id="path3810"
           d="M 38,31 H 10 c -1.1,0 -2,0.9 -2,2 v 6 c 0,1.1 0.9,2 2,2 h 28 c 1.1,0 2,-0.9 2,-2 v -6 c 0,-1.1 -0.9,-2 -2,-2 z"
           inkscape:connector-curvature="0" />
      </g>
      <text
         style="font-size:20px;font-family:Arial;fill:#000000"
         y="417"
         x="234.08122"
         id="e10_texte">Proceso 1</text>
      <text
         style="font-size:20px;font-family:Arial;fill:#000000"
         y="417.97971"
         x="434"
         id="e11_texte">Proceso 2</text>
      <text
         style="font-size:20px;font-family:Arial;fill:#000000"
         y="416.91879"
         x="642"
         id="e12_texte">Proceso 3</text>
    </g>
  </g>
</svg>
