<?xml version="1.0" encoding="UTF-8" standalone="no"?>
<svg xmlns="http://www.w3.org/2000/svg" xmlns:cc="http://creativecommons.org/ns#" xmlns:dc="http://purl.org/dc/elements/1.1/" xmlns:rdf="http://www.w3.org/1999/02/22-rdf-syntax-ns#" xmlns:svg="http://www.w3.org/2000/svg" id="svg8" width="146.01907mm" height="56.865856mm" version="1.1" viewBox="0 0 146.01907 56.865856">
    <defs id="defs2"/>
    <metadata id="metadata5">
        <rdf:RDF>
            <cc:Work rdf:about="">
                <dc:format>
                    image/svg+xml
                </dc:format>
                <dc:type rdf:resource="http://purl.org/dc/dcmitype/StillImage"/>
                <dc:title/>
            </cc:Work>
        </rdf:RDF>
    </metadata>
    <g id="layer1" transform="translate(-30.555941,-46.317071)">
        <g id="g3840" transform="matrix(0.26458333,0,0,0.26458333,-25.342427,-9.3166633)">
            <g id="g3804" style="vector-effect:non-scaling-stroke;fill:none;stroke:#000000;stroke-width:1px" topico="/PM/tnt/p2" transform="matrix(4.41176,4.00257e-4,-4.00257e-4,4.41176,385.715,185.108)">
                <path id="path3798" d="M 38,7 H 10 C 8.9,7 8,7.9 8,9 v 6 c 0,1.1 0.9,2 2,2 h 28 c 1.1,0 2,-0.9 2,-2 V 9 C 40,7.9 39.1,7 38,7 Z"/>
                <path id="path3800" d="M 38,19 H 10 c -1.1,0 -2,0.9 -2,2 v 6 c 0,1.1 0.9,2 2,2 h 28 c 1.1,0 2,-0.9 2,-2 v -6 c 0,-1.1 -0.9,-2 -2,-2 z"/>
                <path id="path3802" d="M 38,31 H 10 c -1.1,0 -2,0.9 -2,2 v 6 c 0,1.1 0.9,2 2,2 h 28 c 1.1,0 2,-0.9 2,-2 v -6 c 0,-1.1 -0.9,-2 -2,-2 z"/>
            </g>
            <g id="g3812" style="vector-effect:non-scaling-stroke;fill:none;stroke:#000000;stroke-width:1px" topico="/PM/tnt/p3" transform="matrix(4.43226,0,0,4.43226,583.646,186.886)">
                <path id="path3806" d="M 38,7 H 10 C 8.9,7 8,7.9 8,9 v 6 c 0,1.1 0.9,2 2,2 h 28 c 1.1,0 2,-0.9 2,-2 V 9 C 40,7.9 39.1,7 38,7 Z"/>
                <path id="path3808" d="M 38,19 H 10 c -1.1,0 -2,0.9 -2,2 v 6 c 0,1.1 0.9,2 2,2 h 28 c 1.1,0 2,-0.9 2,-2 v -6 c 0,-1.1 -0.9,-2 -2,-2 z"/>
                <path id="path3810" d="M 38,31 H 10 c -1.1,0 -2,0.9 -2,2 v 6 c 0,1.1 0.9,2 2,2 h 28 c 1.1,0 2,-0.9 2,-2 v -6 c 0,-1.1 -0.9,-2 -2,-2 z"/>
            </g>
            <text id="e10_texte" x="234.08122" y="417" style="font-size:20px;font-family:Arial;fill:#000000">
                Proceso 1
            </text>
            <text id="e11_texte" x="434" y="417.97971" style="font-size:20px;font-family:Arial;fill:#000000">
                Proceso 2
            </text>
            <text id="e12_texte" x="642" y="416.91879" style="font-size:20px;font-family:Arial;fill:#000000">
                Proceso 3
            </text>
        </g>
        <g id="g27" topico="/PM/tnt/p1" transform="matrix(0.04175573,0,0,0.04094964,33.465581,49.032145)">
            <path id="path25" d="m 950.4,215.4 c -6,6 -13.8,9 -21.7,9 -7.8,0 -15.7,-3 -21.7,-9 l -41.7,-41.7 c -1.5,4 -3.7,7.8 -6.9,11 l -27.8,27.8 c 79.5,82.6 128.7,194.6 128.7,318 C 959.4,783.9 753.3,990 500,990 246.7,990 40.6,783.9 40.6,530.6 40.6,287.6 230.3,88.7 469.3,72.8 V 40.6 C 469.3,23.7 483,10 499.9,10 c 16.9,0 30.6,13.7 30.6,30.6 v 32.2 c 95.9,6.4 183.8,42 254.8,98.5 l 29.8,-29.8 c 3.2,-3.2 7,-5.4 11,-6.9 L 784.4,92.9 c -12,-12 -12,-31.3 0,-43.3 12,-12 31.3,-12 43.3,0 l 122.5,122.5 c 12.2,12 12.2,31.3 0.2,43.3 z M 500,132.5 c -219.5,0 -398.1,178.6 -398.1,398.1 0,219.5 178.6,398.1 398.1,398.1 219.5,0 398.1,-178.6 398.1,-398.1 C 898.1,311.1 719.5,132.5 500,132.5 Z m 0,490 c -50.7,0 -91.9,-41.2 -91.9,-91.9 0,-39.9 25.7,-73.5 61.3,-86.2 v -220 c 0,-16.9 13.7,-30.6 30.6,-30.6 16.9,0 30.6,13.7 30.6,30.6 v 220 c 35.6,12.7 61.3,46.4 61.3,86.2 0,50.7 -41.2,91.9 -91.9,91.9 z M 530.6,500 h -61.2 v 61.3 h 61.2 z"/>
        </g>
    </g>
</svg>
