<?xml version="1.0" encoding="UTF-8" standalone="no"?>
<!-- Created with Inkscape (http://www.inkscape.org/) -->

<svg
   xmlns:dc="http://purl.org/dc/elements/1.1/"
   xmlns:cc="http://creativecommons.org/ns#"
   xmlns:rdf="http://www.w3.org/1999/02/22-rdf-syntax-ns#"
   xmlns:svg="http://www.w3.org/2000/svg"
   xmlns="http://www.w3.org/2000/svg"
   xmlns:sodipodi="http://sodipodi.sourceforge.net/DTD/sodipodi-0.dtd"
   xmlns:inkscape="http://www.inkscape.org/namespaces/inkscape"
   width="194.96617mm"
   height="99.044579mm"
   viewBox="0 0 194.96617 99.044579"
   version="1.1"
   id="svg8"
   inkscape:version="0.92.2 5c3e80d, 2017-08-06"
   sodipodi:docname="ejemplo_svg.svg">
  <defs
     id="defs2" />
  <sodipodi:namedview
     id="base"
     pagecolor="#ffffff"
     bordercolor="#666666"
     borderopacity="1.0"
     inkscape:pageopacity="0.0"
     inkscape:pageshadow="2"
     inkscape:zoom="0.63239603"
     inkscape:cx="368.44001"
     inkscape:cy="187.17086"
     inkscape:document-units="mm"
     inkscape:current-layer="layer1"
     showgrid="false"
     fit-margin-top="0"
     fit-margin-left="0"
     fit-margin-right="0"
     fit-margin-bottom="0"
     inkscape:window-width="1280"
     inkscape:window-height="755"
     inkscape:window-x="0"
     inkscape:window-y="1"
     inkscape:window-maximized="1"
     showguides="false" />
  <metadata
     id="metadata5">
    <rdf:RDF>
      <cc:Work
         rdf:about="">
        <dc:format>image/svg+xml</dc:format>
        <dc:type
           rdf:resource="http://purl.org/dc/dcmitype/StillImage" />
        <dc:title></dc:title>
      </cc:Work>
    </rdf:RDF>
  </metadata>
  <g
     inkscape:label="Capa 1"
     inkscape:groupmode="layer"
     id="layer1"
     transform="translate(-11.335503,-10.320689)">
    <path
       style="opacity:1;fill:#999999;fill-opacity:1;stroke:#002b1e;stroke-width:0.89299989;stroke-linecap:round;stroke-miterlimit:4;stroke-dasharray:none;stroke-dashoffset:0;stroke-opacity:1"
       d="m 11.782003,24.942831 c 0,0 15.370385,-5.151682 23.349789,-5.291667 9.447435,-0.165739 27.84837,5.291667 27.84837,5.291667 v 73.691078 c 0,0 -17.365296,10.463971 -26.991497,10.282471 -8.76512,-0.16526 -24.206662,-10.282471 -24.206662,-10.282471 z"
       id="rect815"
       inkscape:connector-curvature="0"
       sodipodi:nodetypes="csccscc" 
       />
    <text
       xml:space="preserve"
       style="font-style:normal;font-weight:normal;font-size:5.64444447px;line-height:125%;font-family:sans-serif;letter-spacing:0px;word-spacing:0px;fill:#000000;fill-opacity:1;stroke:none;stroke-width:0.26458332px;stroke-linecap:butt;stroke-linejoin:miter;stroke-opacity:1"
       x="22.707134"
       y="14.509925"
       id="text827"><tspan
         sodipodi:role="line"
         id="tspan825"
         x="22.707134"
         y="14.509925"
         style="stroke-width:0.26458332px">Proceso 1</tspan></text>
    <text
       id="text831"
       y="14.509925"
       x="96.790459"
       style="font-style:normal;font-weight:normal;font-size:5.64444447px;line-height:125%;font-family:sans-serif;letter-spacing:0px;word-spacing:0px;fill:#000000;fill-opacity:1;stroke:none;stroke-width:0.26458332px;stroke-linecap:butt;stroke-linejoin:miter;stroke-opacity:1"
       xml:space="preserve"><tspan
         style="stroke-width:0.26458332px"
         y="14.509925"
         x="96.790459"
         id="tspan829"
         sodipodi:role="line">Proceso 2</tspan></text>
    <text
       xml:space="preserve"
       style="font-style:normal;font-weight:normal;font-size:5.64444447px;line-height:125%;font-family:sans-serif;letter-spacing:0px;word-spacing:0px;fill:#000000;fill-opacity:1;stroke:none;stroke-width:0.26458332px;stroke-linecap:butt;stroke-linejoin:miter;stroke-opacity:1"
       x="170.87383"
       y="14.509925"
       id="text835"><tspan
         sodipodi:role="line"
         id="tspan833"
         x="170.87383"
         y="14.509925"
         style="stroke-width:0.26458332px">Proceso 3</tspan></text>
    <path
       sodipodi:type="inkscape:offset"
       inkscape:radius="-4.2505488"
       inkscape:original="M 35.130859 19.650391 C 27.151455 19.790376 11.78125 24.943359 11.78125 24.943359 L 11.78125 98.634766 C 11.78125 98.634766 27.223161 108.75076 35.988281 108.91602 C 45.614482 109.09752 62.980469 98.634766 62.980469 98.634766 L 62.980469 24.943359 C 62.980469 24.943359 44.578294 19.484652 35.130859 19.650391 z "
       style="opacity:1;fill:#1a1a1a;fill-opacity:1;stroke:#002b1e;stroke-width:0.89299989;stroke-linecap:round;stroke-miterlimit:4;stroke-dasharray:none;stroke-dashoffset:0;stroke-opacity:1"
       id="path838"
       d="m 35.205078,23.900391 c -3.123,0.05479 -8.927356,1.282755 -13.634766,2.552734 -3.090368,0.833729 -4.069643,1.185722 -5.539062,1.654297 v 68.078125 c 1.193147,0.754178 2.852793,1.865726 6.511719,3.748047 4.737821,2.437356 10.730135,4.679716 13.52539,4.732426 3.225775,0.0608 9.902209,-2.18482 15.22461,-4.673832 4.169603,-1.949907 6.133018,-3.157192 7.4375,-3.916016 V 28.224609 C 57.055074,27.750652 55.589813,27.293935 51.636719,26.375 45.988967,25.062125 39.062127,23.832725 35.205078,23.900391 Z" />
    <path
                topico="/TNT/pm/a"
       style="opacity:1;fill:#ffff00;fill-opacity:1;stroke:#002b1e;stroke-width:0.89299989;stroke-linecap:round;stroke-miterlimit:4;stroke-dasharray:none;stroke-dashoffset:0;stroke-opacity:1"
       d="m 35.205078,55.650391 c -3.123,0.05479 -8.927356,1.282755 -13.634766,2.552734 -3.090368,0.833729 -4.069643,1.185722 -5.539062,1.654297 v 36.328125 c 1.193147,0.754178 2.852793,1.865726 6.511719,3.748047 4.737821,2.437356 10.730135,4.679716 13.52539,4.732426 3.225775,0.0608 9.902209,-2.18482 15.22461,-4.673832 4.169603,-1.949907 6.133018,-3.157192 7.4375,-3.916016 V 59.974609 C 57.055074,59.500652 55.589813,59.043935 51.636719,58.125 45.988967,56.812125 39.062127,55.582725 35.205078,55.650391 Z"
       id="path842"
       inkscape:connector-curvature="0"
       sodipodi:nodetypes="ssccscsccss" />
    <path
       sodipodi:nodetypes="csccscc"
       inkscape:connector-curvature="0"
       id="path851"
       d="m 85.86534,24.942831 c 0,0 15.37038,-5.151682 23.34979,-5.291667 9.44744,-0.165739 27.84839,5.291667 27.84839,5.291667 v 73.691078 c 0,0 -17.36531,10.463971 -26.99152,10.282471 -8.76512,-0.16526 -24.20666,-10.282471 -24.20666,-10.282471 z"
       style="opacity:1;fill:#999999;fill-opacity:1;stroke:#002b1e;stroke-width:0.89299989;stroke-linecap:round;stroke-miterlimit:4;stroke-dasharray:none;stroke-dashoffset:0;stroke-opacity:1" />
    <path
       d="m 35.205078,23.900391 c -3.123,0.05479 -8.927356,1.282755 -13.634766,2.552734 -3.090368,0.833729 -4.069643,1.185722 -5.539062,1.654297 v 68.078125 c 1.193147,0.754178 2.852793,1.865726 6.511719,3.748047 4.737821,2.437356 10.730135,4.679716 13.52539,4.732426 3.225775,0.0608 9.902209,-2.18482 15.22461,-4.673832 4.169603,-1.949907 6.133018,-3.157192 7.4375,-3.916016 V 28.224609 C 57.055074,27.750652 55.589813,27.293935 51.636719,26.375 45.988967,25.062125 39.062127,23.832725 35.205078,23.900391 Z"
       id="path857"
       style="opacity:1;fill:#1a1a1a;fill-opacity:1;stroke:#002b1e;stroke-width:0.89299989;stroke-linecap:round;stroke-miterlimit:4;stroke-dasharray:none;stroke-dashoffset:0;stroke-opacity:1"
       inkscape:original="M 35.130859 19.650391 C 27.151455 19.790376 11.78125 24.943359 11.78125 24.943359 L 11.78125 98.634766 C 11.78125 98.634766 27.223161 108.75076 35.988281 108.91602 C 45.614482 109.09752 62.980469 98.634766 62.980469 98.634766 L 62.980469 24.943359 C 62.980469 24.943359 44.578294 19.484652 35.130859 19.650391 z "
       inkscape:radius="-4.2505488"
       sodipodi:type="inkscape:offset"
       transform="translate(74.083336)" />
    <path
       sodipodi:nodetypes="ssccscsccss"
       inkscape:connector-curvature="0"
       id="path859"
       d="m 109.28842,55.650391 c -3.123,0.05479 -8.92736,1.282755 -13.634771,2.552734 -3.090368,0.833729 -4.069643,1.185722 -5.539062,1.654297 v 36.328125 c 1.193147,0.754178 2.852793,1.865726 6.511719,3.748047 4.737824,2.437356 10.730134,4.679716 13.525394,4.732426 3.22578,0.0608 9.90221,-2.18482 15.22462,-4.673832 4.1696,-1.949907 6.13302,-3.157192 7.4375,-3.916016 V 59.974609 c -1.67539,-0.473957 -3.14066,-0.930674 -7.09375,-1.849609 -5.64776,-1.312875 -12.5746,-2.542275 -16.43165,-2.474609 z"
       style="opacity:1;fill:#ffff00;fill-opacity:1;stroke:#002b1e;stroke-width:0.89299989;stroke-linecap:round;stroke-miterlimit:4;stroke-dasharray:none;stroke-dashoffset:0;stroke-opacity:1" />
    <path
       style="opacity:1;fill:#999999;fill-opacity:1;stroke:#002b1e;stroke-width:0.89299989;stroke-linecap:round;stroke-miterlimit:4;stroke-dasharray:none;stroke-dashoffset:0;stroke-opacity:1"
       d="m 154.65699,24.942831 c 0,0 15.37039,-5.151682 23.3498,-5.291667 9.44744,-0.165739 27.84839,5.291667 27.84839,5.291667 v 73.691078 c 0,0 -17.36531,10.463971 -26.99152,10.282471 -8.76512,-0.16526 -24.20667,-10.282471 -24.20667,-10.282471 z"
       id="path867"
       inkscape:connector-curvature="0"
       sodipodi:nodetypes="csccscc" />
    <path
       transform="translate(142.87499)"
       sodipodi:type="inkscape:offset"
       inkscape:radius="-4.2505488"
       inkscape:original="M 35.130859 19.650391 C 27.151455 19.790376 11.78125 24.943359 11.78125 24.943359 L 11.78125 98.634766 C 11.78125 98.634766 27.223161 108.75076 35.988281 108.91602 C 45.614482 109.09752 62.980469 98.634766 62.980469 98.634766 L 62.980469 24.943359 C 62.980469 24.943359 44.578294 19.484652 35.130859 19.650391 z "
       style="opacity:1;fill:#1a1a1a;fill-opacity:1;stroke:#002b1e;stroke-width:0.89299989;stroke-linecap:round;stroke-miterlimit:4;stroke-dasharray:none;stroke-dashoffset:0;stroke-opacity:1"
       id="path873"
       d="m 35.205078,23.900391 c -3.123,0.05479 -8.927356,1.282755 -13.634766,2.552734 -3.090368,0.833729 -4.069643,1.185722 -5.539062,1.654297 v 68.078125 c 1.193147,0.754178 2.852793,1.865726 6.511719,3.748047 4.737821,2.437356 10.730135,4.679716 13.52539,4.732426 3.225775,0.0608 9.902209,-2.18482 15.22461,-4.673832 4.169603,-1.949907 6.133018,-3.157192 7.4375,-3.916016 V 28.224609 C 57.055074,27.750652 55.589813,27.293935 51.636719,26.375 45.988967,25.062125 39.062127,23.832725 35.205078,23.900391 Z" />
    <path
       style="opacity:1;fill:#ffff00;fill-opacity:1;stroke:#002b1e;stroke-width:0.89299989;stroke-linecap:round;stroke-miterlimit:4;stroke-dasharray:none;stroke-dashoffset:0;stroke-opacity:1"
       d="m 178.08008,55.650391 c -3.123,0.05479 -8.92736,1.282755 -13.63477,2.552734 -3.09038,0.833729 -4.06965,1.185722 -5.53907,1.654297 v 36.328125 c 1.19315,0.754178 2.85279,1.865726 6.51172,3.748047 4.73783,2.437356 10.73014,4.679716 13.5254,4.732426 3.22578,0.0608 9.90221,-2.18482 15.22462,-4.673832 4.1696,-1.949907 6.13302,-3.157192 7.4375,-3.916016 V 59.974609 c -1.67539,-0.473957 -3.14066,-0.930674 -7.09375,-1.849609 -5.64776,-1.312875 -12.5746,-2.542275 -16.43165,-2.474609 z"
       id="path875"
       inkscape:connector-curvature="0"
       sodipodi:nodetypes="ssccscsccss" />
    <path
       sodipodi:nodetypes="cssc"
       inkscape:connector-curvature="0"
       id="path902"
       d="m 51.636719,58.125 c -5.647752,-1.312875 -12.574592,-2.542275 -16.431641,-2.474609 -3.123,0.05479 -8.927356,1.282755 -13.634766,2.552734 -3.090368,0.833729 -4.069643,1.185722 -5.539062,1.654297"
       style="opacity:1;fill:#ffff00;fill-opacity:1;stroke:#002b1e;stroke-width:0.89299989;stroke-linecap:round;stroke-miterlimit:4;stroke-dasharray:none;stroke-dashoffset:0;stroke-opacity:1" />
  </g>
</svg>
